<?xml version="1.0" encoding="UTF-8"?>
<svg id="Layer_1" data-name="Layer 1" xmlns="http://www.w3.org/2000/svg" viewBox="0 0 512 512">
  <defs>
    <style>
      .cls-1, .cls-2, .cls-3, .cls-4, .cls-5, .cls-6, .cls-7, .cls-8, .cls-9 {
        stroke: #000;
        stroke-linecap: round;
        stroke-linejoin: round;
      }

      .cls-1, .cls-2, .cls-3, .cls-4, .cls-5, .cls-7, .cls-8, .cls-9 {
        stroke-width: 6px;
      }

      .cls-1, .cls-10 {
        fill: #fff;
      }

      .cls-2 {
        fill: #2252a0;
      }

      .cls-3 {
        fill: #44a329;
      }

      .cls-4 {
        fill: #e88989;
      }

      .cls-10 {
        stroke-width: 0px;
      }

      .cls-5 {
        fill: #aa5452;
      }

      .cls-6 {
        stroke-width: 3px;
      }

      .cls-6, .cls-7 {
        fill: none;
      }

      .cls-9 {
        fill: #d33737;
      }
    </style>
  </defs>
  <path class="cls-2" d="m154.83,82.17s10.2-34,38.02-35.83,42.15,27,42.15,27l11.17-3s-11.33-45.17-56.67-38-48.67,53.83-48.67,53.83l14-4Z"></path>
  <path class="cls-2" d="m282.67,73.17s25.2-24.91,56.33-27.17c25.33-1.83,57.33,21.17,69.17,52.83s-3.08,74.13-8.22,83.29l-10.28-8.63s19.39-43.01,5.19-71c-13.11-25.83-25.74-40.66-55.36-42.34-23-1.3-48.2,21.17-48.2,21.17l-8.63-8.17Z"></path>
  <path class="cls-4" d="m71.22,225.28s-12.67-9.39-7.78-26.5,15.33-20.67,15.33-20.67c0,0-6.22-3.78-1.33-17.11s15.06-14.88,15.06-14.88c0,0-4.83-15.34,8.06-29.56s26.22-15.78,26.22-15.78c0,0,4.67-15.78,20.67-21.11s29.39,1.11,29.39,1.11c0,0,6.61-13.99,31.28-16.89,15.11-1.78,26.89,6.44,26.89,6.44,0,0,8.89-6.44,29.78-4.89s36.22,14,36.22,14c0,0,12.89-1.78,30.44,4.67s14.22,24.44,14.22,24.44c0,0,10.44-4.67,22.44,5.33s6.67,18,6.67,18c0,0,7.67.29,15.99,12.57,3.01,4.43,0,14.65,0,14.65,0,0,6.56,2.89,9.56,8.22s.98,12.81.98,12.81c0,0-44.19,18.68-121.92,36.77s-181.42,59.18-181.42,59.18c0,0-13.31-5.82-18.98-20.96s-7.78-29.86-7.78-29.86Z"></path>
  <path class="cls-9" d="m288.99,72.17s7.01-5.83,17.01-6.67,46,22.33,46,22.33c0,0,1.83,8.17,1.17,14.33s-1.5,11-1.5,11l-9.67,8.83-36.02-20.92s.6-10.44-1.37-16.47-15.62-12.44-15.62-12.44Z"></path>
  <polyline class="cls-7" points="305.98 101.08 314 91.44 351.67 113.17"></polyline>
  <path class="cls-7" d="m314,91.44s.07-7.75-1.44-13.89c-2.44-9.89-7.8-11.92-7.8-11.92"></path>
  <path class="cls-9" d="m132.52,260.49s-25.3-7.72-35.52-17.94-13.78-20.44-13.78-20.44l-8.22-1.21s.81,18.23,18.67,31.21c20.11,14.61,27.19,14.61,27.19,14.61l11.66-6.23Z"></path>
  <path class="cls-9" d="m75,220.91s-4,4.43-8.78,10.54-5.44,10.22-5.44,10.22c0,0,2.89,14.44,17.67,24.44s18.11,10.89,18.11,10.89c0,0,.61-.54,1.42-.91s14.07-5.47,15.74-6.18,7.14-3.19,7.14-3.19c0,0-10.52-1.17-28.9-15.97-16.04-12.92-16.95-29.85-16.95-29.85Z"></path>
  <path class="cls-9" d="m162.75,171.5l10.47,1.83,22.78-37.78-4.78-10.33s-7.11-4.02-14.39-5.44-12.61-.67-12.61-.67c0,0-11.22,7.44-18,19.67s-8.22,16.11-8.78,19.89,2.25,3.93,2.25,3.93"></path>
  <path class="cls-3" d="m131.26,177.38s-2.6-3.46.57-6.96,14.25-14.25,16.42-14.75,7.5-.08,11.5,4.58,3.5,9.75,3,11.25-15.67,15.25-18.25,15.75-4.93-1.6-4.93-1.6"></path>
  <path class="cls-2" d="m163.44,235.21s-22.4,1.79-30.92-8.88-7.19-22.59-3.85-28.38,14.33-15.45,14.33-15.45c0,0,.17-2.67-2.83-5.83s-5.83-1.67-5.83-1.67c0,0-1.22.8-3.07,2.38-5.21,4.46-15.42,15.13-17.26,31.62-1.14,10.14,4.94,25.49,14.33,31.5,11.29,7.22,24.06,5.59,24.06,5.59l6-5.59,5.05-5.29Z"></path>
  <polyline class="cls-7" points="191.22 125.22 169.33 162.11 173.22 173.33"></polyline>
  <line class="cls-7" x1="169.33" y1="162.11" x2="160.38" y2="161.05"></line>
  <path class="cls-3" d="m459.67,515.89s-10.22-33.56-34.67-45.56-48.9-.61-67.11-12.44c-8.89-5.78-7.56-20.17-7.56-20.17,0,0,42.89-6.06,56.79-23.06,16.23-19.86,22.1-68.33,20.77-92.77,0,0,10.22-14.67-6.22-38.89,0,0,2.44-1.56,4.67-4.67,0,0,13.33-2.22,11.78-14.44s-7.78-18.22-7.78-18.22c0,0,7.56-5.56,6.44-13.11s-7.56-9.33-7.56-9.33c0,0,2.89-3.33-.67-12.22s-13.11-10.44-13.11-10.44c0,0-19.53-42.83-62-42.89-27.78-.04-53.56,21.33-53.56,21.33,0,0-30-18.89-61.78-9.33s-44.11,23.85-64.22,52.44c-31.11,44.22-73.78,51.11-77.33,54.89s-14.22,60.44-18.67,98.67,0,72-4,83.78-35.89,56.56-35.89,56.56l250.78,3,170.89-3.11Z"></path>
  <path class="cls-5" d="m253,352.78s55.78,24.44,109.78,17.33,81.11-28.22,80.89-44-12.32-12.98-15.78-9.33c-3,3.17-5.46,11.91-23.33,20.44-10.17,4.86-23.74,9.68-48,11.78-26.42,2.28-47.85,1.25-64.22-2.67-25.09-6-39.26-16.84-48.67-17.78-15.56-1.56-21.33,19.78-17.33,32.44s56,29.67,103,30.33,93.87-1.05,103-20.33c6.67-14.08-2.85-23.6-2.85-23.6"></path>
  <path class="cls-1" d="m351.22,273.22s-1.56-36.67,32.89-38.89,46.22,11.33,46.22,11.33c0,0-.41,20.18-38,27.56-34,6.67-41.11,0-41.11,0Z"></path>
  <path class="cls-1" d="m333.22,276.19s2.44-33.85-38-33.63-82.89,15.78-82.89,15.78c0,0,18.01,27.08,69.11,29.11,44.67,1.78,51.78-11.26,51.78-11.26Z"></path>
  <path class="cls-7" d="m338.11,309.44s-3.33,4.67-10,9.56-12.67,5.56-12.67,5.56"></path>
  <path class="cls-7" d="m390.77,313.94s-.77-5.75-6.77-10.86-18.56-7.64-18.56-7.64c0,0,14.03,4.71,33.78-1.11,20.36-6,22.44-11.33,22.44-11.33"></path>
  <path class="cls-7" d="m333.22,276.19s3.78.15,6.78,3.26,3.78,16.27,1.33,19.03-32.22,13.42-66.67,12.53-58.67-10.11-58.67-10.11"></path>
  <path class="cls-7" d="m326.78,255.14s12.44-8.58,8.89-16.14-42.89-17.56-75.56-12.22-54.67,19.33-66.22,22.89-14.28,2.11-15.33,2.89,7.78,12.53,7.78,12.53c0,0,10.44-1.42,14.89-2.75s11.11-4,11.11-4"></path>
  <path class="cls-7" d="m333.25,236.44s2.86-2.89,1.14-11.17-13.72-17.11-48.39-17.78-58.83,9.39-72.17,16-26.87,13.55-37,17"></path>
  <path class="cls-7" d="m328.48,216.91s-6.15-17.58-15.15-26.24-13.44-11.67-13.44-11.67"></path>
  <path class="cls-7" d="m415.44,200.56s-13.53-2.6-31.61,3.44c-25.16,8.41-27.5,12.91-27.5,12.91"></path>
  <path class="cls-7" d="m429.22,223.22s-15.88-4.38-42.93-1.1c-19.12,2.32-29.96,11.96-29.96,11.96"></path>
  <path class="cls-7" d="m350.33,437.72s-17.67,3.67-52.33,3.83-109.44-11.34-109.44-11.34"></path>
  <path class="cls-7" d="m235,70.33s15,11.33,21,27.33,5.67,30.67,11.33,40.83,17.5,20.17,17.5,20.17"></path>
  <path class="cls-7" d="m304.76,156.33s-14.43-2.17-19.93,2.33-6.99,11.2-6.99,11.2"></path>
  <path class="cls-7" d="m275,89.17s20.83,2.67,25,10.33-.67,11,3.17,18.17,9.5,10,9.5,10"></path>
  <path class="cls-7" d="m300.94,101.52s.89-3.19,2.39-5.86,2.58-3.18,2.58-3.18"></path>
  <path class="cls-7" d="m374.78,131.89s-14.78,6.11-28.22,2-14.83-17.86-14.83-17.86"></path>
  <path class="cls-7" d="m390.77,159.11s-.86,2.06-2.36,4.31-4.19,2.73-4.19,2.73"></path>
  <path class="cls-7" d="m248.25,152.56s.19,5.11-.69,9.02c-.73,3.23-2.62,6.45-2.62,6.45"></path>
  <path class="cls-7" d="m158.47,123.72s-4.91-33.61,18.37-42.94,50.83,23.22,50.83,23.22"></path>
  <path class="cls-7" d="m216.44,123.72s1.78-14.5,11.22-19.72,20.6,4.89,20.6,4.89"></path>
  <path class="cls-7" d="m126.78,100.78s-4.33,13.89,4.44,26.11,13.98,13.73,13.98,13.73"></path>
  <path class="cls-7" d="m92.5,146.12s4.83-1.62,13.67-1.78,15.83,3.83,15.83,3.83"></path>
  <path class="cls-7" d="m78.78,178.11s12.64-4.53,23.39-2.11c14.75,3.32,19.2,12.69,19.2,12.69"></path>
  <path class="cls-3" d="m268.11,517.44s9.58-29.33,4.68-60-8.01-46.44-8.01-46.44c0,0,11.56,1.78,15.78-7.33s1.33-21.56,1.33-29.56.89-17.56-4.44-24.22-17.33-8.44-19.33-8.44c0,0-2.71-7.78-17.58-12.89s-17.31-2.22-17.31-2.22c0,0-.97-2.25-8.72-6.58s-7.28-4.11-12.17-3.67-31.08,14.33-31.08,14.33c0,0-.42-5.08-2.08-10.75s-2.83-12.33-2-15.5,3.33-22,5.17-24.67,21.17-16,24-21.83,5.5-14.5.17-20.17-16.5-3.81-25,7.68-13.75,12.82-19.33,17.49c-4.35,3.63-10.33,5.33-15.46,16.56-1.66,3.64-3.9,6.36-4.71,9.52-1,3.92-.94,18.54-4,30.92,0,0-5.61,29.33-6.64,36.22s6.3,33.11,7.41,48.67-1.11,24.67,2.22,34.89,13.33,20.89,18,32.44,18,44.89,18.89,47.11l100.22-1.56Z"></path>
  <line class="cls-7" x1="171.25" y1="330.42" x2="144.44" y2="345"></line>
  <path class="cls-7" d="m223.22,326.33s-13.67,6.53-20.78,11.37-12.56,9.07-12.56,9.07"></path>
  <path class="cls-7" d="m258.11,341.44s-15.02,5.89-23.86,10.64-13.92,8.83-13.92,8.83"></path>
  <path class="cls-7" d="m264.11,365.33s3.59,8.9.79,16.28-6.79,10.94-6.79,10.94l6.67,18.44"></path>
  <path class="cls-8" d="m248.25,248.28s-6.14,9.17-6.36,15.61,5.33,17.53,5.33,17.53c0,0,3.14,2.67,17,4.26,6.34.73,18.45.43,18.45.43,0,0,8.2-11.22,8.63-21.03.81-18.08-10.98-21.81-10.98-21.81l-32.07,5Z"></path>
  <path class="cls-8" d="m374.78,235.98s-7.17,9.69-7.56,20.02,12.52,19.16,12.52,19.16l12.48-2.5,10.76-2.15s7.57-11.07,4.01-19.07-7.5-17.04-7.5-17.04l-16.79.04-7.93,1.53Z"></path>
  <path class="cls-10" d="m377.55,242.02c-3.66,1.55-3.87,6-2.65,7.77,2.26,3.3,4.38,3.82,7.75,2.56,1.67-.63,2.65-3.53,2.02-6.76-.57-2.94-3.46-5.11-7.12-3.56Z"></path>
  <path class="cls-10" d="m388.69,245.87c-2.05.87-2.16,3.36-1.49,4.35,1.27,1.85,2.45,2.14,4.34,1.43.94-.35,1.48-1.98,1.13-3.79-.32-1.65-1.94-2.86-3.98-1.99Z"></path>
  <path class="cls-10" d="m381.83,255.29c-1.51.64-1.6,2.48-1.1,3.21.94,1.37,1.81,1.58,3.21,1.06.69-.26,1.1-1.46.84-2.8-.24-1.22-1.43-2.12-2.95-1.47Z"></path>
  <path class="cls-10" d="m256.08,251.18c-3.66,1.55-3.87,6-2.65,7.77,2.26,3.3,4.38,3.82,7.75,2.56,1.67-.63,2.65-3.53,2.02-6.76-.57-2.94-3.46-5.11-7.12-3.56Z"></path>
  <path class="cls-10" d="m267.22,255.03c-2.05.87-2.16,3.36-1.49,4.35,1.27,1.85,2.45,2.14,4.34,1.43.94-.35,1.48-1.98,1.13-3.79-.32-1.65-1.94-2.86-3.98-1.99Z"></path>
  <path class="cls-10" d="m260.37,264.44c-1.51.64-1.6,2.48-1.1,3.21.94,1.37,1.81,1.58,3.21,1.06.69-.26,1.1-1.46.84-2.8-.24-1.22-1.43-2.12-2.95-1.47Z"></path>
  <path class="cls-6" d="m66.4,240.53c-.56,1.15-.67,4.78,3,4.78s4.56-1.56,4.33-3.56-1.13-4-3.67-3.67c-2.55.33-3.1,1.3-3.66,2.44Z"></path>
  <path class="cls-6" d="m168.77,132.88c-.56,1.15-.67,4.78,3,4.78s4.56-1.56,4.33-3.56-1.13-4-3.67-3.67c-2.55.33-3.1,1.3-3.66,2.44Z"></path>
  <path class="cls-6" d="m154.5,135.84c-.56,1.15-.67,4.78,3,4.78s4.56-1.56,4.33-3.56-1.13-4-3.67-3.67c-2.55.33-3.1,1.3-3.66,2.44Z"></path>
  <path class="cls-6" d="m330.2,89.81c-.56,1.15-.67,4.78,3,4.78s4.56-1.56,4.33-3.56-1.13-4-3.67-3.67c-2.55.33-3.1,1.3-3.66,2.44Z"></path>
  <path class="cls-6" d="m95.4,266.78c-.56,1.15-.67,4.78,3,4.78s4.56-1.56,4.33-3.56-1.13-4-3.67-3.67c-2.55.33-3.1,1.3-3.66,2.44Z"></path>
  <path class="cls-6" d="m71.94,244.93c2.28,2.95,4.56,5.9,6.83,8.84l-7.4,6.41"></path>
  <polyline class="cls-6" points="93.67 252.11 86.11 258.22 95.11 265.08"></polyline>
  <polyline class="cls-6" points="144.33 142.22 158.03 144.33 152.52 155.81"></polyline>
  <line class="cls-6" x1="180.5" y1="120.7" x2="174.57" y2="130.39"></line>
  <line class="cls-6" x1="161.42" y1="139.22" x2="178.82" y2="145.25"></line>
  <path class="cls-6" d="m325.44,72.45s1.39,8.21,1.72,10.38l-14.61-5.28"></path>
  <path class="cls-6" d="m352.86,99.72s-3.92-2.29-7.19-3.89-8.22-3.35-8.22-3.35"></path>
</svg>